<svg width="17" height="16" viewBox="0 0 17 16" fill="none" xmlns="http://www.w3.org/2000/svg">
<path d="M14 4L13.4026 2.60608C13.245 2.2384 12.8835 2 12.4835 2H3.51654C3.11651 2 2.75497 2.2384 2.59739 2.60608L2 4" stroke="#333333" stroke-width="0.8" stroke-linecap="round"/>
<path d="M3.18555 5.40039H12.8145C13.1861 5.40067 13.4681 5.73517 13.4053 6.10156L12.0342 14.1016C11.9847 14.3895 11.7346 14.5996 11.4424 14.5996H4.55762C4.26541 14.5996 4.01526 14.3895 3.96582 14.1016L2.59473 6.10156C2.53192 5.73517 2.81389 5.40067 3.18555 5.40039Z" stroke="#333333" stroke-width="0.8"/>
<path d="M6 8L6.5 12" stroke="#333333" stroke-width="0.8" stroke-linecap="round"/>
<path d="M10 8L9.5 12" stroke="#333333" stroke-width="0.8" stroke-linecap="round"/>
</svg>
