<svg width="17" height="16" viewBox="0 0 17 16" fill="none" xmlns="http://www.w3.org/2000/svg">
<path d="M3.5 4.36134V11.3602C3.5 12.3645 3.5 12.8665 3.6701 13.1738C3.98537 13.7434 4.67631 14.0707 5.38639 13.987C5.7695 13.9419 6.24136 13.6634 7.18508 13.1063L7.18735 13.105C7.5614 12.8842 7.74846 12.7737 7.94413 12.7125C8.30351 12.6 8.69563 12.6 9.05501 12.7125C9.25108 12.7739 9.43886 12.8847 9.81443 13.1064C10.7582 13.6635 11.2305 13.9418 11.6137 13.9869C12.3237 14.0706 13.0146 13.7434 13.3299 13.1738C13.5 12.8666 13.5 12.3643 13.5 11.3602V4.35892C13.5 3.53404 13.5 3.12098 13.3185 2.80561C13.1587 2.52793 12.9031 2.30233 12.5895 2.16085C12.233 2 11.7669 2 10.8335 2H6.16683C5.23341 2 4.76635 2 4.40983 2.16085C4.09623 2.30233 3.84144 2.52793 3.68166 2.80561C3.5 3.12129 3.5 3.53484 3.5 4.36134Z" stroke="#333333" stroke-width="0.8" stroke-linecap="round" stroke-linejoin="round"/>
</svg>
