<svg width="16" height="16" viewBox="0 0 16 16" fill="none" xmlns="http://www.w3.org/2000/svg">
<path d="M3.21582 4.51796V11.2154C3.21582 12.1765 3.21582 12.6569 3.37859 12.951C3.68029 13.496 4.34148 13.8092 5.02098 13.7292C5.38759 13.686 5.83913 13.4194 6.74222 12.8863L6.74438 12.8851C7.10233 12.6738 7.28133 12.5681 7.46857 12.5095C7.81248 12.4019 8.18772 12.4019 8.53162 12.5095C8.71924 12.5682 8.89894 12.6743 9.25834 12.8864C10.1614 13.4195 10.6135 13.6859 10.9801 13.7291C11.6596 13.8091 12.3207 13.496 12.6224 12.951C12.7852 12.6569 12.7852 12.1763 12.7852 11.2154V4.51564C12.7852 3.72628 12.7852 3.33101 12.6115 3.02922C12.4586 2.7635 12.214 2.54761 11.9139 2.41222C11.5727 2.2583 11.1267 2.2583 10.2335 2.2583H5.76781C4.87458 2.2583 4.42764 2.2583 4.08647 2.41222C3.78637 2.54761 3.54256 2.7635 3.38965 3.02922C3.21582 3.3313 3.21582 3.72705 3.21582 4.51796Z" stroke="#333333" stroke-width="0.76555" stroke-linecap="round" stroke-linejoin="round"/>
</svg>
