<svg width="30" height="30" viewBox="0 0 30 30" fill="none" xmlns="http://www.w3.org/2000/svg">
<path d="M7 9.19629H24" stroke="#111111" stroke-linecap="round"/>
<path d="M7 21.5601H24" stroke="#111111" stroke-linecap="round"/>
<path d="M7 15.3779H24" stroke="#111111" stroke-linecap="round"/>
<path d="M10.6969 11.3924C11.9098 11.3924 12.8931 10.4091 12.8931 9.19618C12.8931 7.98326 11.9098 7 10.6969 7C9.48399 7 8.50073 7.98326 8.50073 9.19618C8.50073 10.4091 9.48399 11.3924 10.6969 11.3924Z" fill="white"/>
<path d="M12.6622 8.20896C12.8141 8.50665 12.8931 8.84078 12.8931 9.19315C12.8931 10.4082 11.9089 11.3924 10.6939 11.3924C9.47883 11.3924 8.50073 10.4143 8.50073 9.19922C8.50073 7.98418 9.48491 7 10.6999 7C10.9672 7 11.2285 7.0486 11.4654 7.13365" stroke="#111111" stroke-miterlimit="10" stroke-linecap="round"/>
<path d="M10.6969 23.7561C11.9098 23.7561 12.8931 22.7729 12.8931 21.56C12.8931 20.347 11.9098 19.3638 10.6969 19.3638C9.48399 19.3638 8.50073 20.347 8.50073 21.56C8.50073 22.7729 9.48399 23.7561 10.6969 23.7561Z" fill="white"/>
<path d="M12.6622 20.5727C12.8141 20.8704 12.8931 21.2046 12.8931 21.5569C12.8931 22.772 11.9089 23.7561 10.6939 23.7561C9.47883 23.7561 8.50073 22.778 8.50073 21.563C8.50073 20.348 9.48491 19.3638 10.6999 19.3638C10.9672 19.3638 11.2285 19.4124 11.4654 19.4974" stroke="#111111" stroke-miterlimit="10" stroke-linecap="round"/>
<path d="M19.0424 17.574C20.2553 17.574 21.2385 16.5907 21.2385 15.3778C21.2385 14.1649 20.2553 13.1816 19.0424 13.1816C17.8295 13.1816 16.8462 14.1649 16.8462 15.3778C16.8462 16.5907 17.8295 17.574 19.0424 17.574Z" fill="white"/>
<path d="M21.0077 14.3906C21.1596 14.6883 21.2385 15.0224 21.2385 15.3748C21.2385 16.5898 20.2544 17.574 19.0393 17.574C17.8243 17.574 16.8462 16.5959 16.8462 15.3809C16.8462 14.1658 17.8304 13.1816 19.0454 13.1816C19.3127 13.1816 19.5739 13.2302 19.8109 13.3153" stroke="#111111" stroke-miterlimit="10" stroke-linecap="round"/>
</svg>
