<svg width="20" height="20" viewBox="0 0 20 20" fill="none" xmlns="http://www.w3.org/2000/svg">
<path d="M10 19C14.9706 19 19 14.9706 19 10C19 5.02944 14.9706 1 10 1C5.02944 1 1 5.02944 1 10C1 14.9706 5.02944 19 10 19Z" fill="#F8F8F8"/>
<mask id="path-2-inside-1_12042_1232" fill="white">
<path d="M17.967 5.81205C18.6255 7.06456 19 8.48924 19 10C19 14.9713 14.9713 19 10 19C5.02869 19 1 14.9713 1 10C1 5.02869 5.02869 1 10 1C11.2439 1 12.4275 1.25395 13.5036 1.70588"/>
</mask>
<path d="M17.967 5.81205L17.2589 6.18435C17.859 7.32564 18.2 8.62296 18.2 10H19H19.8C19.8 8.35552 19.3921 6.80348 18.6751 5.43976L17.967 5.81205ZM19 10H18.2C18.2 14.5295 14.5295 18.2 10 18.2V19V19.8C15.4131 19.8 19.8 15.4131 19.8 10H19ZM10 19V18.2C5.47052 18.2 1.8 14.5295 1.8 10H1H0.2C0.2 15.4131 4.58687 19.8 10 19.8V19ZM1 10H1.8C1.8 5.47052 5.47052 1.8 10 1.8V1V0.2C4.58687 0.2 0.2 4.58687 0.2 10H1ZM10 1V1.8C11.1341 1.8 12.2126 2.03138 13.1938 2.44347L13.5036 1.70588L13.8134 0.968297C12.6425 0.47651 11.3537 0.2 10 0.2V1Z" fill="#111111" mask="url(#path-2-inside-1_12042_1232)"/>
<path d="M10 4.40039C13.0928 4.40039 15.5996 6.90721 15.5996 10C15.5996 13.0928 13.0928 15.5996 10 15.5996C6.90721 15.5996 4.40039 13.0928 4.40039 10C4.40039 6.90721 6.90721 4.40039 10 4.40039Z" fill="white" stroke="#111111" stroke-width="0.8" stroke-miterlimit="10"/>
<path d="M10.424 13.64H9.71999V12.976C9.59732 12.976 9.46399 12.968 9.31999 12.952C9.18132 12.936 9.04265 12.9173 8.90399 12.896C8.76532 12.8693 8.63199 12.84 8.50399 12.808C8.37599 12.7707 8.26132 12.7333 8.15999 12.696L8.26399 11.992C8.48799 12.0507 8.71999 12.1013 8.95999 12.144C9.19999 12.1813 9.45332 12.2 9.71999 12.2V10.24C9.59732 10.1707 9.47199 10.096 9.34399 10.016C9.21599 9.93067 9.08265 9.83467 8.94399 9.728C8.68799 9.54133 8.49865 9.33333 8.37599 9.104C8.25332 8.87467 8.19199 8.64267 8.19199 8.408C8.19199 8.2 8.22932 8.016 8.30399 7.856C8.37865 7.69067 8.48265 7.552 8.61599 7.44C8.75465 7.32267 8.91732 7.232 9.10399 7.168C9.29065 7.09867 9.49599 7.05067 9.71999 7.024V6.352H10.424V7.032C10.6373 7.05867 10.864 7.09333 11.104 7.136C11.344 7.17867 11.5547 7.21867 11.736 7.256L11.64 7.936C11.4373 7.904 11.2347 7.87467 11.032 7.848C10.8293 7.82133 10.6267 7.80533 10.424 7.8V9.568C10.5147 9.62133 10.6027 9.67733 10.688 9.736C10.7733 9.78933 10.8613 9.84533 10.952 9.904C11.1013 10 11.24 10.0987 11.368 10.2C11.496 10.3013 11.6053 10.4107 11.696 10.528C11.7867 10.6453 11.856 10.776 11.904 10.92C11.9573 11.064 11.984 11.2293 11.984 11.416C11.984 11.6133 11.944 11.7947 11.864 11.96C11.7893 12.12 11.6827 12.264 11.544 12.392C11.4053 12.5147 11.24 12.6187 11.048 12.704C10.8613 12.7893 10.6533 12.856 10.424 12.904V13.64ZM10.904 11.432C10.904 11.2773 10.864 11.144 10.784 11.032C10.7093 10.9147 10.5893 10.7947 10.424 10.672V12.12C10.6 12.0453 10.7227 11.952 10.792 11.84C10.8667 11.728 10.904 11.592 10.904 11.432ZM9.27199 8.392C9.27199 8.53067 9.31465 8.66133 9.39999 8.784C9.48532 8.90667 9.59199 9.016 9.71999 9.112V7.824C9.56532 7.86667 9.45065 7.93333 9.37599 8.024C9.30665 8.10933 9.27199 8.232 9.27199 8.392Z" fill="#111111"/>
</svg>
