<svg width="20" height="20" viewBox="0 0 20 20" fill="none" xmlns="http://www.w3.org/2000/svg">
<path d="M11.4004 1.41016C13.3969 1.50834 15.4294 2.33493 16.7012 3.76562C17.9886 5.21397 18.5372 6.88718 18.5947 9.09961H11.4004V1.41016Z" fill="white" stroke="#111111" stroke-width="0.8"/>
<path d="M3 9.72739C3 5.30593 6.58449 1.71973 11.0115 1.71973L11.0038 9.71206H19C19 14.1335 15.4155 17.7197 10.9962 17.7197C8.79033 17.7197 6.79129 16.8308 5.34371 15.3902C3.89612 13.9419 3 11.9419 3 9.72739Z" fill="#F8F8F8"/>
<path d="M10.0038 10.7121H18C18 15.1335 14.4155 18.7197 9.99617 18.7197C7.79033 18.7197 5.79129 17.8308 4.34371 16.3902C2.89612 14.9419 2 12.9419 2 10.7274C2 6.30593 5.58449 2.71973 10.0115 2.71973V8.58958" stroke="#111111" stroke-width="0.8" stroke-miterlimit="10"/>
</svg>
