<svg width="20" height="20" viewBox="0 0 20 20" fill="none" xmlns="http://www.w3.org/2000/svg">
<path d="M3 1H14.9185C16.1837 1 17.2105 2.06105 17.2105 3.36842V19H5.29202C4.02683 19 3 17.9389 3 16.6316V1Z" fill="#F8F8F8"/>
<path d="M17.2105 10.2605V19H5.29202C4.02683 19 3 17.9389 3 16.6316V1H14.9185C16.1837 1 17.2105 2.06105 17.2105 3.36842V6.57526" stroke="#111111" stroke-width="0.8" stroke-miterlimit="10"/>
<path d="M14.1316 2.89453H6.07896C5.42493 2.89453 4.89474 3.31868 4.89474 3.8419C4.89474 4.36512 5.42493 4.78927 6.07896 4.78927H14.1316C14.7856 4.78927 15.3158 4.36512 15.3158 3.8419C15.3158 3.31868 14.7856 2.89453 14.1316 2.89453Z" fill="#F8F8F8" stroke="#111111" stroke-width="0.8" stroke-miterlimit="10"/>
<path d="M7.7368 8.15777C7.7368 7.89616 7.52472 7.68408 7.26311 7.68408C7.0015 7.68408 6.78943 7.89616 6.78943 8.15777V9.10513C6.78943 9.36674 7.0015 9.57882 7.26311 9.57882C7.52472 9.57882 7.7368 9.36674 7.7368 9.10513V8.15777Z" fill="#111111"/>
<path d="M10.579 8.15777C10.579 7.89616 10.3669 7.68408 10.1053 7.68408C9.84367 7.68408 9.63159 7.89616 9.63159 8.15777V9.10513C9.63159 9.36674 9.84367 9.57882 10.1053 9.57882C10.3669 9.57882 10.579 9.36674 10.579 9.10513V8.15777Z" fill="#111111"/>
<path d="M13.421 8.15777C13.421 7.89616 13.2089 7.68408 12.9473 7.68408C12.6857 7.68408 12.4736 7.89616 12.4736 8.15777V9.10513C12.4736 9.36674 12.6857 9.57882 12.9473 9.57882C13.2089 9.57882 13.421 9.36674 13.421 9.10513V8.15777Z" fill="#111111"/>
<path d="M7.7368 11.0001C7.7368 10.7384 7.52472 10.5264 7.26311 10.5264C7.0015 10.5264 6.78943 10.7384 6.78943 11.0001V11.9474C6.78943 12.209 7.0015 12.4211 7.26311 12.4211C7.52472 12.4211 7.7368 12.209 7.7368 11.9474V11.0001Z" fill="#111111"/>
<path d="M10.579 11.0001C10.579 10.7384 10.3669 10.5264 10.1053 10.5264C9.84367 10.5264 9.63159 10.7384 9.63159 11.0001V11.9474C9.63159 12.209 9.84367 12.4211 10.1053 12.4211C10.3669 12.4211 10.579 12.209 10.579 11.9474V11.0001Z" fill="#111111"/>
<path d="M13.421 11.0001C13.421 10.7384 13.2089 10.5264 12.9473 10.5264C12.6857 10.5264 12.4736 10.7384 12.4736 11.0001V11.9474C12.4736 12.209 12.6857 12.4211 12.9473 12.4211C13.2089 12.4211 13.421 12.209 13.421 11.9474V11.0001Z" fill="#111111"/>
<path d="M7.7368 13.8423C7.7368 13.5807 7.52472 13.3687 7.26311 13.3687C7.0015 13.3687 6.78943 13.5807 6.78943 13.8423V14.7897C6.78943 15.0513 7.0015 15.2634 7.26311 15.2634C7.52472 15.2634 7.7368 15.0513 7.7368 14.7897V13.8423Z" fill="#111111"/>
<path d="M10.579 13.8423C10.579 13.5807 10.3669 13.3687 10.1053 13.3687C9.84367 13.3687 9.63159 13.5807 9.63159 13.8423V14.7897C9.63159 15.0513 9.84367 15.2634 10.1053 15.2634C10.3669 15.2634 10.579 15.0513 10.579 14.7897V13.8423Z" fill="#111111"/>
<path d="M13.421 13.8423C13.421 13.5807 13.2089 13.3687 12.9473 13.3687C12.6857 13.3687 12.4736 13.5807 12.4736 13.8423V14.7897C12.4736 15.0513 12.6857 15.2634 12.9473 15.2634C13.2089 15.2634 13.421 15.0513 13.421 14.7897V13.8423Z" fill="#111111"/>
</svg>
