<svg width="20" height="20" viewBox="0 0 20 20" fill="none" xmlns="http://www.w3.org/2000/svg">
<g clip-path="url(#clip0_12042_1231)">
<path d="M16.76 2.5H2V13.324C2 14.2293 2.73472 14.964 3.64 14.964H18.4V4.14C18.4 3.23472 17.6653 2.5 16.76 2.5Z" fill="#F8F8F8"/>
<path d="M9.9722 15.0278V17.3056" stroke="#111111" stroke-width="0.8" stroke-miterlimit="10"/>
<path d="M5.41666 17.3057H14.5278" stroke="#111111" stroke-width="0.8" stroke-miterlimit="10"/>
<path d="M18.4 14.964H3.64C2.73472 14.964 2 14.2293 2 13.324V2.5H16.76C17.6653 2.5 18.4 3.23472 18.4 4.14V12.0809" stroke="#111111" stroke-width="0.8" stroke-miterlimit="10"/>
<path d="M13.3554 8.83463V9.41829H12.6161C12.4994 9.8463 12.3826 10.2376 12.2659 10.5921C12.1492 10.9466 12.0346 11.2492 11.9222 11.5H10.93L10.5019 9.41829H9.85344L9.41894 11.5H8.41375C8.30134 11.2147 8.19109 10.8947 8.08301 10.5402C7.97925 10.1857 7.87549 9.81172 7.77173 9.41829H7V8.83463H7.62905C7.53394 8.43256 7.44531 8.03048 7.36316 7.6284C7.28534 7.22633 7.21833 6.85019 7.16213 6.5H8.03761C8.08517 6.85019 8.14354 7.23065 8.21271 7.64137C8.28621 8.04777 8.36619 8.44553 8.45266 8.83463H9.26978L9.71077 6.69455H10.6381L11.0726 8.83463H11.9222C12.0086 8.4585 12.0843 8.07155 12.1492 7.6738C12.2183 7.27605 12.2767 6.88478 12.3243 6.5H13.1933C13.1414 6.89343 13.0787 7.28686 13.0052 7.68029C12.936 8.06939 12.856 8.45417 12.7652 8.83463H13.3554ZM11.4228 10.5337C11.4488 10.4645 11.4769 10.3846 11.5071 10.2938C11.5417 10.1987 11.5741 10.1014 11.6044 10.0019C11.639 9.90251 11.6714 9.80307 11.7017 9.70363C11.732 9.59987 11.7579 9.50476 11.7795 9.41829H11.2023L11.4228 10.5337ZM9.15305 9.41829H8.58236C8.62992 9.59987 8.6818 9.78361 8.738 9.96952C8.79853 10.1554 8.86338 10.3392 8.93256 10.5208L9.15305 9.41829ZM10.1777 7.89429L9.97017 8.83463H10.3852L10.1777 7.89429Z" fill="#111111"/>
</g>
<defs>
<clipPath id="clip0_12042_1231">
<rect width="20" height="20" fill="white"/>
</clipPath>
</defs>
</svg>
