<svg width="20" height="20" viewBox="0 0 20 20" fill="none" xmlns="http://www.w3.org/2000/svg">
<path d="M2 8.58838H17.0588V18.0001H3.50588C2.67464 18.0001 2 17.3613 2 16.5741V8.58838Z" fill="#F8F8F8" stroke="#111111" stroke-width="0.8" stroke-miterlimit="10"/>
<path d="M2 3.42725H15.5529C16.3842 3.42725 17.0588 4.10188 17.0588 4.93313V7.04136H2V3.42725Z" stroke="#111111" stroke-width="0.8" stroke-miterlimit="10"/>
<path d="M7.27059 2.75294C7.27059 2.3371 6.93349 2 6.51765 2C6.10181 2 5.76471 2.3371 5.76471 2.75294V4.25882C5.76471 4.67466 6.10181 5.01177 6.51765 5.01177C6.93349 5.01177 7.27059 4.67466 7.27059 4.25882V2.75294Z" fill="#F8F8F8" stroke="#111111" stroke-width="0.8" stroke-miterlimit="10"/>
<path d="M13.2471 2.75294C13.2471 2.3371 12.91 2 12.4941 2C12.0783 2 11.7412 2.3371 11.7412 2.75294V4.25882C11.7412 4.67466 12.0783 5.01177 12.4941 5.01177C12.91 5.01177 13.2471 4.67466 13.2471 4.25882V2.75294Z" fill="#F8F8F8" stroke="#111111" stroke-width="0.8" stroke-miterlimit="10"/>
</svg>
