<svg width="20" height="20" viewBox="0 0 20 20" fill="none" xmlns="http://www.w3.org/2000/svg">
<path d="M14.8215 5.84326H5.11098C3.94512 5.84326 3 6.78838 3 7.95425V15.5538C3 16.7197 3.94512 17.6648 5.11098 17.6648H14.8215C15.9873 17.6648 16.9324 16.7197 16.9324 15.5538V7.95425C16.9324 6.78838 15.9873 5.84326 14.8215 5.84326Z" fill="#F8F8F8" stroke="#111111" stroke-width="0.8" stroke-miterlimit="10"/>
<path d="M10.6671 6.49316C10.6671 6.1434 10.3835 5.85986 10.0338 5.85986C9.68402 5.85986 9.40048 6.1434 9.40048 6.49316V17.0481C9.40048 17.3979 9.68402 17.6814 10.0338 17.6814C10.3835 17.6814 10.6671 17.3979 10.6671 17.0481V6.49316Z" fill="#111111"/>
<path d="M16.3667 11.1372H3.70086C3.3511 11.1372 3.06757 11.4207 3.06757 11.7705C3.06757 12.1203 3.3511 12.4038 3.70086 12.4038H16.3667C16.7165 12.4038 17 12.1203 17 11.7705C17 11.4207 16.7165 11.1372 16.3667 11.1372Z" fill="#111111"/>
<path d="M7.63992 2.37277L9.73823 5.48015L6.58021 4.6653C6.58021 4.6653 4.78166 4.23466 5.88781 2.75274C5.88781 2.75274 6.85885 1.35527 7.63992 2.36854V2.37277Z" stroke="#111111" stroke-width="0.8" stroke-miterlimit="10"/>
<path d="M12.4994 2.37277L10.4011 5.48015L13.5591 4.6653C13.5591 4.6653 15.3577 4.23466 14.2515 2.75274C14.2515 2.75274 13.2805 1.35527 12.4994 2.36854V2.37277Z" stroke="#111111" stroke-width="0.8" stroke-miterlimit="10"/>
</svg>
