<svg width="20" height="15" viewBox="0 0 20 15" fill="none" xmlns="http://www.w3.org/2000/svg">
<path d="M14.6797 0.596191C17.5629 0.596405 19.9004 2.93365 19.9004 5.81689V9.73193C19.9004 12.6152 17.5629 14.9534 14.6797 14.9536H8.15332C5.26995 14.9536 2.93262 12.6153 2.93262 9.73193V9.08057H0.322266L2.93262 6.46924V5.81689C2.93262 2.93352 5.26995 0.596191 8.15332 0.596191H14.6797Z" fill="url(#paint0_linear_10002_1894)"/>
<path d="M8.69568 10.9014H6.79957L8.93586 4.42929H11.3376L13.4739 10.9014H11.5778L10.162 6.21164H10.1114L8.69568 10.9014ZM8.34174 8.34793H11.9064V9.66257H8.34174V8.34793ZM15.8543 4.42929V10.9014H14.0972V4.42929H15.8543Z" fill="white"/>
<defs>
<linearGradient id="paint0_linear_10002_1894" x1="3.84631" y1="7.775" x2="17.6517" y2="17.2952" gradientUnits="userSpaceOnUse">
<stop offset="0.350962" stop-color="#3644B3"/>
<stop offset="1" stop-color="#101C74"/>
</linearGradient>
</defs>
</svg>
