<svg width="22" height="17" viewBox="0 0 22 17" fill="none" xmlns="http://www.w3.org/2000/svg">
<path d="M16.1338 0C19.3736 0.000246943 22 2.62727 22 5.86719V10.2666C22 13.5065 19.3736 16.1335 16.1338 16.1338H8.7998C5.55982 16.1337 2.93359 13.5066 2.93359 10.2666V9.5332H0L2.93359 6.59961V5.86719C2.93359 2.62718 5.55982 0.000105849 8.7998 0H16.1338Z" fill="url(#paint0_linear_12005_1430)"/>
<path d="M9.2896 11.4668H7.15891L9.55948 4.19407H12.2583L14.6589 11.4668H12.5282L10.9373 6.19691H10.8805L9.2896 11.4668ZM8.89187 8.59748H12.8975V10.0748H8.89187V8.59748ZM17.3338 4.19407V11.4668H15.3594V4.19407H17.3338Z" fill="white"/>
<defs>
<linearGradient id="paint0_linear_12005_1430" x1="3.96" y1="8.06689" x2="19.2594" y2="20.8057" gradientUnits="userSpaceOnUse">
<stop stop-color="#7E7E7E"/>
<stop offset="1" stop-color="#424242"/>
</linearGradient>
</defs>
</svg>
