<svg width="22" height="22" viewBox="0 0 22 22" fill="none" xmlns="http://www.w3.org/2000/svg">
<path d="M11.0034 13.399C12.3267 13.399 13.3994 12.3262 13.3994 11.0029C13.3994 9.67966 12.3267 8.60693 11.0034 8.60693C9.68015 8.60693 8.60742 9.67966 8.60742 11.0029C8.60742 12.3262 9.68015 13.399 11.0034 13.399Z" fill="#FFCC00"/>
<path d="M11.0039 2V6.19302" stroke="#FFCC00" stroke-width="0.8" stroke-miterlimit="10"/>
<path d="M6.49805 3.2041L8.59455 6.84005" stroke="#FFCC00" stroke-width="0.8" stroke-miterlimit="10"/>
<path d="M3.20312 6.49854L6.83907 8.59505" stroke="#FFCC00" stroke-width="0.8" stroke-miterlimit="10"/>
<path d="M2 11.0029H6.19301" stroke="#FFCC00" stroke-width="0.8" stroke-miterlimit="10"/>
<path d="M3.20312 15.5018L6.83907 13.4053" stroke="#FFCC00" stroke-width="0.8" stroke-miterlimit="10"/>
<path d="M6.49805 18.796L8.59455 15.166" stroke="#FFCC00" stroke-width="0.8" stroke-miterlimit="10"/>
<path d="M11.0039 20.0002V15.8071" stroke="#FFCC00" stroke-width="0.8" stroke-miterlimit="10"/>
<path d="M15.5028 18.796L13.4062 15.166" stroke="#FFCC00" stroke-width="0.8" stroke-miterlimit="10"/>
<path d="M18.796 15.5018L15.166 13.4053" stroke="#FFCC00" stroke-width="0.8" stroke-miterlimit="10"/>
<path d="M19.9997 11.0029H15.8066" stroke="#FFCC00" stroke-width="0.8" stroke-miterlimit="10"/>
<path d="M18.796 6.49854L15.166 8.59505" stroke="#FFCC00" stroke-width="0.8" stroke-miterlimit="10"/>
<path d="M15.5028 3.2041L13.4062 6.84005" stroke="#FFCC00" stroke-width="0.8" stroke-miterlimit="10"/>
</svg>
