<svg width="111" height="25" viewBox="0 0 111 25" fill="none" xmlns="http://www.w3.org/2000/svg">
<path d="M80 1H103C104.657 1 106 2.34315 106 4V23H83C81.3431 23 80 21.6569 80 20V1Z" fill="url(#paint0_linear_10114_1368)"/>
<path d="M86.1527 17L89.6757 7.744H92.3277L95.8117 17H93.1077L90.5207 9.135H91.4567L88.8047 17H86.1527ZM88.4407 15.44V13.412H93.6147V15.44H88.4407ZM96.5536 17V7.744H99.1536V17H96.5536Z" fill="#111111"/>
<path d="M77 11V14" stroke="#FFCC00" stroke-width="2.5" stroke-linecap="round"/>
<path d="M109 11V14" stroke="#FFCC00" stroke-width="2.5" stroke-linecap="round"/>
<path d="M4.28453 19H1.60453V3.58H4.28453V19ZM4.84453 10.72C5.76453 9.50667 6.6912 8.32 7.62453 7.16C8.55787 5.98667 9.4312 4.79333 10.2445 3.58H13.0845C12.6845 4.20667 12.2512 4.85333 11.7845 5.52C11.3312 6.17333 10.8712 6.81333 10.4045 7.44C9.93786 8.06667 9.47787 8.66667 9.02453 9.24C8.58453 9.8 8.18453 10.3067 7.82453 10.76L14.0245 19H11.0445L4.84453 10.72ZM23.6708 10.58C24.4974 10.8333 25.1641 11.2867 25.6708 11.94C26.1908 12.58 26.4508 13.38 26.4508 14.34C26.4508 15.0067 26.3241 15.6333 26.0708 16.22C25.8174 16.7933 25.4241 17.2933 24.8908 17.72C24.3708 18.1467 23.7108 18.4867 22.9108 18.74C22.1108 18.98 21.1708 19.1 20.0908 19.1C19.8508 19.1 19.5441 19.0867 19.1708 19.06C18.8108 19.0467 18.4174 19.0267 17.9908 19C17.5774 18.9733 17.1574 18.94 16.7308 18.9C16.3041 18.8467 15.9108 18.7933 15.5508 18.74V4.2C16.2841 3.92 17.0641 3.69333 17.8908 3.52C18.7308 3.33333 19.4908 3.24 20.1708 3.24C20.9841 3.24 21.7308 3.34 22.4108 3.54C23.0908 3.72667 23.6774 4 24.1708 4.36C24.6641 4.70667 25.0441 5.13333 25.3108 5.64C25.5774 6.14667 25.7108 6.71333 25.7108 7.34C25.7108 8.07333 25.5174 8.74 25.1308 9.34C24.7574 9.94 24.2708 10.3533 23.6708 10.58ZM23.7508 14.28C23.7508 13.84 23.6508 13.46 23.4508 13.14C23.2641 12.82 23.0108 12.56 22.6908 12.36C22.3708 12.1467 22.0041 11.9867 21.5908 11.88C21.1908 11.7733 20.7774 11.72 20.3508 11.72H18.2308V16.92C18.6574 16.9867 19.0241 17.0333 19.3308 17.06C19.6374 17.0733 19.9908 17.08 20.3908 17.08C20.8841 17.08 21.3374 17.0333 21.7508 16.94C22.1641 16.8333 22.5174 16.6733 22.8108 16.46C23.1041 16.2333 23.3308 15.94 23.4908 15.58C23.6641 15.22 23.7508 14.7867 23.7508 14.28ZM19.9708 9.74C20.3841 9.74 20.7774 9.68667 21.1508 9.58C21.5241 9.47333 21.8441 9.32 22.1108 9.12C22.3908 8.92 22.6108 8.68 22.7708 8.4C22.9308 8.10667 23.0108 7.78 23.0108 7.42C23.0108 7.03333 22.9308 6.7 22.7708 6.42C22.6241 6.14 22.4174 5.91333 22.1508 5.74C21.8974 5.56667 21.6041 5.44 21.2708 5.36C20.9374 5.28 20.5841 5.24 20.2108 5.24C19.7441 5.24 19.3441 5.27333 19.0108 5.34C18.6908 5.39333 18.4308 5.45333 18.2308 5.52V9.74H19.9708ZM42.7947 10.92C42.7947 11.16 42.6614 11.28 42.3947 11.28H36.9747V13.76C36.9747 14.04 36.9947 14.2867 37.0347 14.5C37.088 14.7 37.1814 14.8667 37.3147 15C37.448 15.1333 37.6347 15.2333 37.8747 15.3C38.1147 15.3667 38.4347 15.4 38.8347 15.4C39.3147 15.4 39.8814 15.3733 40.5347 15.32C41.188 15.2533 41.8614 15.1733 42.5547 15.08C43.2614 14.9733 43.968 14.86 44.6747 14.74C45.3814 14.62 46.028 14.5 46.6147 14.38V2.52H49.1747V20.46H46.6147V15.84C46.0147 16.04 45.3347 16.2333 44.5747 16.42C43.828 16.6067 43.068 16.7733 42.2947 16.92C41.5214 17.0533 40.768 17.16 40.0347 17.24C39.3147 17.32 38.688 17.36 38.1547 17.36C36.768 17.36 35.788 17.0933 35.2147 16.56C34.6547 16.0133 34.3747 15.2267 34.3747 14.2V9.36H40.1947V5.66H34.4547V3.72H41.9547C42.5147 3.72 42.7947 3.99333 42.7947 4.54V10.92ZM63.1277 2.72H65.6877V9.5C64.9277 9.59333 64.1677 9.66667 63.4077 9.72C62.6477 9.77333 61.9077 9.82667 61.1877 9.88V11.5H68.2477V13.34H51.4477V11.5H58.5277V9.98H56.9477C55.8677 9.98 55.101 9.77333 54.6477 9.36C54.1943 8.93333 53.9677 8.26 53.9677 7.34V2.72H56.5277V4.34H63.1277V2.72ZM53.0477 19.56C53.5677 19.28 54.1677 18.94 54.8477 18.54C55.541 18.1267 56.1943 17.7133 56.8077 17.3C57.2743 16.9933 57.6477 16.66 57.9277 16.3C58.2077 15.94 58.3477 15.5267 58.3477 15.06V14.18H61.0077V15.06C61.0077 15.3 60.9677 15.56 60.8877 15.84C61.3543 16.08 61.841 16.3467 62.3477 16.64C62.8677 16.92 63.3743 17.22 63.8677 17.54C64.3743 17.8467 64.8543 18.16 65.3077 18.48C65.7743 18.7867 66.181 19.0867 66.5277 19.38C66.621 19.46 66.6677 19.5733 66.6677 19.72C66.6677 19.8667 66.621 19.9933 66.5277 20.1L65.6477 21.16C64.7277 20.5067 63.761 19.8733 62.7477 19.26C61.7477 18.66 60.7543 18.12 59.7677 17.64C59.4877 17.92 59.1943 18.1867 58.8877 18.44C58.581 18.6933 58.2743 18.9133 57.9677 19.1C57.2877 19.54 56.6077 19.9467 55.9277 20.32C55.2477 20.7067 54.641 21.0133 54.1077 21.24L53.0477 19.56ZM57.4277 8.06C57.9743 8.06 58.701 8.04667 59.6077 8.02C60.5277 7.99333 61.701 7.94667 63.1277 7.88V6.24H56.5277V7.28C56.5277 7.58667 56.601 7.79333 56.7477 7.9C56.8943 8.00667 57.121 8.06 57.4277 8.06Z" fill="url(#paint1_linear_10114_1368)"/>
<path d="M4.28453 19H1.60453V3.58H4.28453V19ZM4.84453 10.72C5.76453 9.50667 6.6912 8.32 7.62453 7.16C8.55787 5.98667 9.4312 4.79333 10.2445 3.58H13.0845C12.6845 4.20667 12.2512 4.85333 11.7845 5.52C11.3312 6.17333 10.8712 6.81333 10.4045 7.44C9.93786 8.06667 9.47787 8.66667 9.02453 9.24C8.58453 9.8 8.18453 10.3067 7.82453 10.76L14.0245 19H11.0445L4.84453 10.72ZM23.6708 10.58C24.4974 10.8333 25.1641 11.2867 25.6708 11.94C26.1908 12.58 26.4508 13.38 26.4508 14.34C26.4508 15.0067 26.3241 15.6333 26.0708 16.22C25.8174 16.7933 25.4241 17.2933 24.8908 17.72C24.3708 18.1467 23.7108 18.4867 22.9108 18.74C22.1108 18.98 21.1708 19.1 20.0908 19.1C19.8508 19.1 19.5441 19.0867 19.1708 19.06C18.8108 19.0467 18.4174 19.0267 17.9908 19C17.5774 18.9733 17.1574 18.94 16.7308 18.9C16.3041 18.8467 15.9108 18.7933 15.5508 18.74V4.2C16.2841 3.92 17.0641 3.69333 17.8908 3.52C18.7308 3.33333 19.4908 3.24 20.1708 3.24C20.9841 3.24 21.7308 3.34 22.4108 3.54C23.0908 3.72667 23.6774 4 24.1708 4.36C24.6641 4.70667 25.0441 5.13333 25.3108 5.64C25.5774 6.14667 25.7108 6.71333 25.7108 7.34C25.7108 8.07333 25.5174 8.74 25.1308 9.34C24.7574 9.94 24.2708 10.3533 23.6708 10.58ZM23.7508 14.28C23.7508 13.84 23.6508 13.46 23.4508 13.14C23.2641 12.82 23.0108 12.56 22.6908 12.36C22.3708 12.1467 22.0041 11.9867 21.5908 11.88C21.1908 11.7733 20.7774 11.72 20.3508 11.72H18.2308V16.92C18.6574 16.9867 19.0241 17.0333 19.3308 17.06C19.6374 17.0733 19.9908 17.08 20.3908 17.08C20.8841 17.08 21.3374 17.0333 21.7508 16.94C22.1641 16.8333 22.5174 16.6733 22.8108 16.46C23.1041 16.2333 23.3308 15.94 23.4908 15.58C23.6641 15.22 23.7508 14.7867 23.7508 14.28ZM19.9708 9.74C20.3841 9.74 20.7774 9.68667 21.1508 9.58C21.5241 9.47333 21.8441 9.32 22.1108 9.12C22.3908 8.92 22.6108 8.68 22.7708 8.4C22.9308 8.10667 23.0108 7.78 23.0108 7.42C23.0108 7.03333 22.9308 6.7 22.7708 6.42C22.6241 6.14 22.4174 5.91333 22.1508 5.74C21.8974 5.56667 21.6041 5.44 21.2708 5.36C20.9374 5.28 20.5841 5.24 20.2108 5.24C19.7441 5.24 19.3441 5.27333 19.0108 5.34C18.6908 5.39333 18.4308 5.45333 18.2308 5.52V9.74H19.9708ZM42.7947 10.92C42.7947 11.16 42.6614 11.28 42.3947 11.28H36.9747V13.76C36.9747 14.04 36.9947 14.2867 37.0347 14.5C37.088 14.7 37.1814 14.8667 37.3147 15C37.448 15.1333 37.6347 15.2333 37.8747 15.3C38.1147 15.3667 38.4347 15.4 38.8347 15.4C39.3147 15.4 39.8814 15.3733 40.5347 15.32C41.188 15.2533 41.8614 15.1733 42.5547 15.08C43.2614 14.9733 43.968 14.86 44.6747 14.74C45.3814 14.62 46.028 14.5 46.6147 14.38V2.52H49.1747V20.46H46.6147V15.84C46.0147 16.04 45.3347 16.2333 44.5747 16.42C43.828 16.6067 43.068 16.7733 42.2947 16.92C41.5214 17.0533 40.768 17.16 40.0347 17.24C39.3147 17.32 38.688 17.36 38.1547 17.36C36.768 17.36 35.788 17.0933 35.2147 16.56C34.6547 16.0133 34.3747 15.2267 34.3747 14.2V9.36H40.1947V5.66H34.4547V3.72H41.9547C42.5147 3.72 42.7947 3.99333 42.7947 4.54V10.92ZM63.1277 2.72H65.6877V9.5C64.9277 9.59333 64.1677 9.66667 63.4077 9.72C62.6477 9.77333 61.9077 9.82667 61.1877 9.88V11.5H68.2477V13.34H51.4477V11.5H58.5277V9.98H56.9477C55.8677 9.98 55.101 9.77333 54.6477 9.36C54.1943 8.93333 53.9677 8.26 53.9677 7.34V2.72H56.5277V4.34H63.1277V2.72ZM53.0477 19.56C53.5677 19.28 54.1677 18.94 54.8477 18.54C55.541 18.1267 56.1943 17.7133 56.8077 17.3C57.2743 16.9933 57.6477 16.66 57.9277 16.3C58.2077 15.94 58.3477 15.5267 58.3477 15.06V14.18H61.0077V15.06C61.0077 15.3 60.9677 15.56 60.8877 15.84C61.3543 16.08 61.841 16.3467 62.3477 16.64C62.8677 16.92 63.3743 17.22 63.8677 17.54C64.3743 17.8467 64.8543 18.16 65.3077 18.48C65.7743 18.7867 66.181 19.0867 66.5277 19.38C66.621 19.46 66.6677 19.5733 66.6677 19.72C66.6677 19.8667 66.621 19.9933 66.5277 20.1L65.6477 21.16C64.7277 20.5067 63.761 19.8733 62.7477 19.26C61.7477 18.66 60.7543 18.12 59.7677 17.64C59.4877 17.92 59.1943 18.1867 58.8877 18.44C58.581 18.6933 58.2743 18.9133 57.9677 19.1C57.2877 19.54 56.6077 19.9467 55.9277 20.32C55.2477 20.7067 54.641 21.0133 54.1077 21.24L53.0477 19.56ZM57.4277 8.06C57.9743 8.06 58.701 8.04667 59.6077 8.02C60.5277 7.99333 61.701 7.94667 63.1277 7.88V6.24H56.5277V7.28C56.5277 7.58667 56.601 7.79333 56.7477 7.9C56.8943 8.00667 57.121 8.06 57.4277 8.06Z" fill="#111111"/>
<defs>
<linearGradient id="paint0_linear_10114_1368" x1="80" y1="12" x2="111" y2="12" gradientUnits="userSpaceOnUse">
<stop offset="0.1" stop-color="#FFD82A"/>
<stop offset="1" stop-color="#FFBC00"/>
</linearGradient>
<linearGradient id="paint1_linear_10114_1368" x1="0" y1="12.5" x2="69" y2="12.5" gradientUnits="userSpaceOnUse">
<stop stop-color="#FFD82A"/>
<stop offset="1" stop-color="#FFBC00"/>
</linearGradient>
</defs>
</svg>
