<svg width="28" height="28" viewBox="0 0 28 28" fill="none" xmlns="http://www.w3.org/2000/svg">
<circle cx="10.5088" cy="13.9624" r="1.08202" fill="#333333"/>
<circle cx="14.2054" cy="14.0005" r="1.08202" fill="#333333"/>
<circle cx="17.9019" cy="14.0386" r="1.08202" fill="#333333"/>
<path d="M11.2 22.3999L11.2 22.9999H11.2V22.3999ZM7.5584 21.3784L7.87102 20.8663C7.66487 20.7405 7.40335 20.7505 7.20745 20.8918L7.5584 21.3784ZM4.2 23.8003H3.6C3.6 24.0255 3.72615 24.2318 3.92666 24.3344C4.12717 24.437 4.36826 24.4187 4.55095 24.287L4.2 23.8003ZM4.2 12.6001L3.6 12.6001V12.6001H4.2ZM16.7996 5.6001V6.2001C20.3342 6.2001 23.1996 9.06548 23.1996 12.6001H23.7996H24.3996C24.3996 8.40273 20.997 5.0001 16.7996 5.0001V5.6001ZM23.7996 12.6001H23.1996V15.3999H23.7996H24.3996V12.6001H23.7996ZM23.7996 15.3999H23.1996C23.1996 18.9345 20.3342 21.7999 16.7996 21.7999V22.3999V22.9999C20.997 22.9999 24.3996 19.5973 24.3996 15.3999H23.7996ZM16.7996 22.3999V21.7999H11.2V22.3999V22.9999H16.7996V22.3999ZM11.2 22.3999L11.2 21.7999C9.97953 21.7999 8.84079 21.4583 7.87102 20.8663L7.5584 21.3784L7.24578 21.8905C8.39811 22.594 9.75229 22.9999 11.2 22.9999L11.2 22.3999ZM7.5584 21.3784L7.20745 20.8918L3.84905 23.3136L4.2 23.8003L4.55095 24.287L7.90935 21.8651L7.5584 21.3784ZM4.2 23.8003H4.8V12.6001H4.2H3.6V23.8003H4.2ZM4.2 12.6001L4.8 12.6001C4.8 9.06548 7.66538 6.2001 11.2 6.2001V5.6001V5.0001C7.00264 5.0001 3.6 8.40274 3.6 12.6001L4.2 12.6001ZM11.2 5.6001V6.2001H16.7996V5.6001V5.0001H11.2V5.6001Z" fill="#333333"/>
</svg>
