<svg width="17" height="16" viewBox="0 0 17 16" fill="none" xmlns="http://www.w3.org/2000/svg">
<path d="M7.14698 10.9522H3.31923V14.7799M10.2092 4.82775H14.0369V1M3 5.59591C3.42923 4.53352 4.14789 3.61285 5.07429 2.93855C6.00069 2.26424 7.09864 1.86317 8.24153 1.78125C9.38442 1.69933 10.5267 1.93964 11.5398 2.47492C12.5529 3.0102 13.3948 3.81917 13.9712 4.80947M14.3566 10.1844C13.9274 11.2467 13.2087 12.1674 12.2823 12.8417C11.3559 13.516 10.2591 13.9166 9.11618 13.9985C7.97329 14.0804 6.83009 13.8402 5.81699 13.3049C4.80388 12.7696 3.96139 11.9608 3.38502 10.9705" stroke="#333333" stroke-width="0.850611" stroke-linecap="round" stroke-linejoin="round"/>
</svg>
