<svg width="18" height="18" viewBox="0 0 18 18" fill="none" xmlns="http://www.w3.org/2000/svg">
<path d="M8.14186 9.85811L12.482 5.51794M16.9217 2.8692L13.2582 14.7757C12.9299 15.8428 12.7656 16.3765 12.4825 16.5535C12.2368 16.7069 11.9327 16.7326 11.6652 16.6216C11.3568 16.4936 11.1064 15.9938 10.607 14.9949L8.28661 10.354C8.20736 10.1955 8.16769 10.1166 8.11475 10.0479C8.06778 9.98699 8.01356 9.93209 7.95262 9.88511C7.8855 9.83337 7.8079 9.79458 7.65647 9.71887L3.00495 7.39308C2.00611 6.89365 1.50664 6.64371 1.37865 6.33525C1.26766 6.06774 1.29297 5.76336 1.44643 5.51774C1.62339 5.23452 2.15712 5.06999 3.22448 4.74157L15.1309 1.07802C15.97 0.819825 16.3897 0.69083 16.6731 0.794885C16.92 0.88552 17.1146 1.07996 17.2053 1.32684C17.3093 1.61014 17.1802 2.02967 16.9223 2.86797L16.9217 2.8692Z" stroke="#333333" stroke-width="0.976744" stroke-linecap="round" stroke-linejoin="round"/>
</svg>
