<svg width="26" height="26" viewBox="0 0 26 26" fill="none" xmlns="http://www.w3.org/2000/svg">
<path d="M21.4355 10.0626L21.0875 9.86812C21.0334 9.83792 21.0069 9.82276 20.9807 9.80705C20.7212 9.65089 20.5025 9.43512 20.3428 9.17698C20.3268 9.15101 20.3116 9.12377 20.2807 9.06994C20.2498 9.01617 20.2341 8.98892 20.2197 8.96195C20.0765 8.69339 19.9991 8.39411 19.9944 8.08949C19.994 8.05886 19.9941 8.02757 19.9951 7.96537L20.0019 7.55939C20.0128 6.90974 20.0183 6.5839 19.9274 6.29148C19.8466 6.03173 19.7116 5.79249 19.5312 5.58946C19.3273 5.35997 19.0451 5.19624 18.4801 4.8692L18.0108 4.59755C17.4474 4.27142 17.1656 4.1083 16.8665 4.04611C16.6019 3.9911 16.3288 3.99365 16.0651 4.0531C15.7675 4.12021 15.4892 4.28758 14.933 4.62213L14.9299 4.62365L14.5936 4.8259C14.5404 4.85788 14.5135 4.874 14.4869 4.88888C14.2224 5.03658 13.9272 5.11826 13.6247 5.12801C13.5942 5.12899 13.5632 5.12899 13.5012 5.12899C13.4396 5.12899 13.4073 5.12899 13.3769 5.12801C13.0738 5.11821 12.7779 5.0361 12.513 4.88779C12.4863 4.87284 12.4599 4.85659 12.4067 4.82446L12.0682 4.62039C11.5082 4.28267 11.2278 4.11355 10.9285 4.04611C10.6638 3.98644 10.3898 3.98479 10.1242 4.04052C9.82429 4.10344 9.54242 4.26777 8.97868 4.59643L8.97617 4.59755L8.51271 4.86774L8.50758 4.87089C7.94892 5.1966 7.66891 5.35984 7.46675 5.5884C7.28736 5.79122 7.15327 6.03009 7.07301 6.28914C6.98229 6.58197 6.98713 6.9085 6.99806 7.56122L7.00485 7.96662C7.00588 8.02801 7.00766 8.05852 7.00722 8.08871C7.00272 8.39395 6.92424 8.69385 6.78063 8.96289C6.76642 8.98949 6.75112 9.0161 6.72056 9.06925C6.68998 9.12243 6.67517 9.14888 6.65931 9.17455C6.49896 9.43406 6.27921 9.65109 6.01804 9.80752C5.99221 9.82299 5.96498 9.83787 5.91149 9.86765L5.56787 10.0589C4.99616 10.3772 4.71037 10.5364 4.50241 10.7631C4.31845 10.9636 4.17947 11.2014 4.09464 11.4604C3.99875 11.7532 3.99883 12.0815 4.00031 12.7381L4.00153 13.2747C4.003 13.9269 4.00502 14.2528 4.10113 14.5436C4.18616 14.8009 4.32412 15.0373 4.50705 15.2366C4.71383 15.4618 4.99678 15.6201 5.56415 15.9372L5.90471 16.1275C5.96267 16.1599 5.99183 16.1759 6.01978 16.1928C6.27858 16.3493 6.49661 16.5657 6.65559 16.8238C6.67277 16.8516 6.68926 16.8806 6.72223 16.9384C6.75479 16.9956 6.77145 17.0241 6.78651 17.0528C6.92591 17.3179 7.00054 17.6124 7.00563 17.9122C7.00618 17.9446 7.00571 17.9773 7.0046 18.0432L6.99806 18.4322C6.98705 19.0872 6.98226 19.415 7.07351 19.7086C7.15424 19.9684 7.28917 20.2076 7.46953 20.4107C7.67341 20.6402 7.95605 20.8038 8.52107 21.1308L8.99027 21.4024C9.5537 21.7286 9.83531 21.8915 10.1344 21.9537C10.3991 22.0087 10.6723 22.0065 10.936 21.9471C11.234 21.8799 11.5132 21.7119 12.071 21.3764L12.4073 21.1742C12.4605 21.1422 12.4874 21.1261 12.5141 21.1113C12.7786 20.9636 13.0735 20.8815 13.3759 20.8717C13.4064 20.8707 13.4374 20.8707 13.4994 20.8707C13.5616 20.8707 13.5925 20.8707 13.6231 20.8717C13.9262 20.8815 14.2229 20.9639 14.4878 21.1122C14.5111 21.1252 14.5344 21.1393 14.5755 21.1641L14.9329 21.3797C15.493 21.7174 15.7729 21.886 16.0721 21.9535C16.3369 22.0131 16.6111 22.0156 16.8767 21.9599C17.1765 21.897 17.459 21.7323 18.0224 21.4038L18.4928 21.1296C19.0518 20.8036 19.3322 20.6402 19.5344 20.4116C19.7138 20.2088 19.848 19.97 19.9283 19.711C20.0183 19.4203 20.0129 19.0962 20.0021 18.4529L19.9951 18.0334C19.9941 17.972 19.994 17.9414 19.9944 17.9112C19.9989 17.606 20.0761 17.3059 20.2197 17.0369C20.2339 17.0103 20.2493 16.9835 20.2798 16.9305C20.3104 16.8773 20.3262 16.8508 20.342 16.8252C20.5024 16.5656 20.7224 16.3484 20.9835 16.192C21.0091 16.1767 21.0353 16.1621 21.0875 16.133L21.0893 16.1322L21.433 15.9409C22.0047 15.6227 22.291 15.4632 22.499 15.2366C22.6829 15.0361 22.8217 14.7986 22.9065 14.5396C23.0019 14.2485 23.0011 13.9221 22.9997 13.2732L22.9984 12.725C22.997 12.0729 22.9962 11.747 22.9 11.4562C22.815 11.199 22.6763 10.9625 22.4934 10.7632C22.2868 10.5382 22.0034 10.3799 21.4372 10.0634L21.4355 10.0626Z" stroke="#111111" stroke-width="1.2" stroke-linecap="round" stroke-linejoin="round"/>
<path d="M9.69882 13.0001C9.69882 15.109 11.4008 16.8186 13.5003 16.8186C15.5998 16.8186 17.3018 15.109 17.3018 13.0001C17.3018 10.8911 15.5998 9.1815 13.5003 9.1815C11.4008 9.1815 9.69882 10.8911 9.69882 13.0001Z" stroke="#111111" stroke-width="1.2" stroke-linecap="round" stroke-linejoin="round"/>
</svg>
