<svg width="17" height="16" viewBox="0 0 17 16" fill="none" xmlns="http://www.w3.org/2000/svg">
<g clip-path="url(#clip0_12052_1318)">
<path d="M12.1079 10.3849L13.554 10.3849C14.3526 10.3849 15 9.73749 15 8.93886L15 2.43169C15 1.63306 14.3526 0.985647 13.554 0.985647L12.1079 0.985647C11.3093 0.985647 10.6619 1.63306 10.6619 2.43169L10.6619 8.93886C10.6619 9.73749 11.3093 10.3849 12.1079 10.3849Z" stroke="#333333" stroke-width="0.76555" stroke-linecap="round" stroke-linejoin="round"/>
<path d="M4.96673 0.985646L7.61717 0.985647C8.18814 0.985647 8.74634 1.15465 9.22141 1.47137L10.3399 2.21705C10.5411 2.35114 10.6619 2.57689 10.6619 2.81863L10.6619 8.74685C10.6619 8.87268 10.629 8.99633 10.5666 9.10557L7.7698 14L6.80912 14C5.36544 14 4.50434 12.391 5.30515 11.1898L6.32377 9.66188L2.39166 9.66188C1.45091 9.66188 0.760631 8.77779 0.988797 7.86513L2.16101 3.17629C2.48287 1.88883 3.63965 0.985646 4.96673 0.985646Z" stroke="#333333" stroke-width="0.76555" stroke-linecap="round" stroke-linejoin="round"/>
</g>
<defs>
<clipPath id="clip0_12052_1318">
<rect width="16" height="16" fill="white" transform="translate(0.493164)"/>
</clipPath>
</defs>
</svg>
