<svg width="12" height="16" viewBox="0 0 12 16" fill="none" xmlns="http://www.w3.org/2000/svg">
<path d="M6.76465 5.79883L6.76172 6.40234H10.126C10.2371 6.40282 10.2997 6.41991 10.3301 6.43164C10.3449 6.4374 10.3537 6.44181 10.3574 6.44434C10.361 6.4468 10.3623 6.4491 10.3633 6.4502C10.3663 6.45361 10.3953 6.49201 10.3994 6.61523C10.4033 6.73449 10.3808 6.87084 10.3506 6.99023C10.3374 7.04238 10.3237 7.08605 10.3135 7.11719L5.20703 15.0527L5.23535 10.2158L5.23828 9.61523L4.63867 9.6123L1.875 9.59766H1.87402C1.76291 9.59718 1.70026 9.58009 1.66992 9.56836C1.6551 9.5626 1.64625 9.55819 1.64258 9.55566C1.639 9.5532 1.63769 9.5509 1.63672 9.5498C1.63373 9.54638 1.60466 9.50798 1.60059 9.38477C1.59666 9.26551 1.61925 9.12916 1.64941 9.00977C1.66267 8.95729 1.67529 8.91301 1.68555 8.88184L6.79199 0.946289L6.76465 5.79883Z" stroke="#111111" stroke-width="1.2" stroke-miterlimit="10"/>
</svg>
