<svg width="16" height="16" viewBox="0 0 16 16" fill="none" xmlns="http://www.w3.org/2000/svg">
<path d="M3.89208 4.6151H2.44604C1.64741 4.6151 1 5.26251 1 6.06114V12.5683C1 13.3669 1.64741 14.0144 2.44604 14.0144H3.89208C4.6907 14.0144 5.33812 13.3669 5.33812 12.5683V6.06114C5.33812 5.26251 4.6907 4.6151 3.89208 4.6151Z" stroke="#333333" stroke-width="0.76555" stroke-linecap="round" stroke-linejoin="round"/>
<path d="M11.0333 14.0144H8.38283C7.81186 14.0144 7.25367 13.8453 6.77859 13.5286L5.66008 12.783C5.45894 12.6489 5.33812 12.4231 5.33812 12.1814V6.25315C5.33812 6.12732 5.37095 6.00368 5.43338 5.89443L8.2302 1H9.19088C10.6346 1 11.4957 2.60898 10.6949 3.8102L9.67624 5.33812H13.6083C14.5491 5.33812 15.2394 6.22221 15.0112 7.13487L13.839 11.8237C13.5171 13.1112 12.3603 14.0144 11.0333 14.0144Z" stroke="#333333" stroke-width="0.76555" stroke-linecap="round" stroke-linejoin="round"/>
</svg>
